<mxfile host="Electron" modified="2024-04-16T22:02:20.329Z" agent="Mozilla/5.0 (Windows NT 10.0; Win64; x64) AppleWebKit/537.36 (KHTML, like Gecko) draw.io/22.1.2 Chrome/114.0.5735.289 Electron/25.9.4 Safari/537.36" etag="04w-NATWH5-UweIjvFgS" version="22.1.2" type="device">
  <diagram name="Страница — 1" id="H83mfQFX13h0znMlLtwe">
    <mxGraphModel dx="1418" dy="1219" grid="0" gridSize="10" guides="1" tooltips="1" connect="1" arrows="1" fold="1" page="0" pageScale="1" pageWidth="827" pageHeight="1169" math="0" shadow="0">
      <root>
        <mxCell id="0" />
        <mxCell id="1" parent="0" />
        <mxCell id="_bRizXqgxDTDamUUWUk5-1" value="" style="endArrow=classic;html=1;rounded=0;" parent="1" edge="1">
          <mxGeometry width="50" height="50" relative="1" as="geometry">
            <mxPoint x="167" y="485" as="sourcePoint" />
            <mxPoint x="167" y="-13" as="targetPoint" />
          </mxGeometry>
        </mxCell>
        <mxCell id="_bRizXqgxDTDamUUWUk5-2" value="" style="endArrow=classic;html=1;rounded=0;" parent="1" edge="1">
          <mxGeometry width="50" height="50" relative="1" as="geometry">
            <mxPoint x="167" y="485" as="sourcePoint" />
            <mxPoint x="1275" y="485" as="targetPoint" />
          </mxGeometry>
        </mxCell>
        <mxCell id="_bRizXqgxDTDamUUWUk5-8" value="" style="endArrow=classic;html=1;rounded=0;" parent="1" edge="1">
          <mxGeometry width="50" height="50" relative="1" as="geometry">
            <mxPoint x="168" y="402" as="sourcePoint" />
            <mxPoint x="1276" y="402" as="targetPoint" />
          </mxGeometry>
        </mxCell>
        <mxCell id="_bRizXqgxDTDamUUWUk5-9" value="&lt;b&gt;&lt;font style=&quot;font-size: 14px;&quot;&gt;0-1&lt;/font&gt;&lt;/b&gt;" style="text;html=1;strokeColor=none;fillColor=none;align=center;verticalAlign=middle;whiteSpace=wrap;rounded=0;" parent="1" vertex="1">
          <mxGeometry x="112.5" y="11" width="45" height="30" as="geometry" />
        </mxCell>
        <mxCell id="_bRizXqgxDTDamUUWUk5-10" value="&lt;b&gt;&lt;font style=&quot;font-size: 14px;&quot;&gt;1-2&lt;/font&gt;&lt;/b&gt;" style="text;html=1;strokeColor=none;fillColor=none;align=center;verticalAlign=middle;whiteSpace=wrap;rounded=0;" parent="1" vertex="1">
          <mxGeometry x="105" y="52" width="60" height="30" as="geometry" />
        </mxCell>
        <mxCell id="_bRizXqgxDTDamUUWUk5-11" value="&lt;b&gt;&lt;font style=&quot;font-size: 14px;&quot;&gt;1-3&lt;/font&gt;&lt;/b&gt;" style="text;html=1;strokeColor=none;fillColor=none;align=center;verticalAlign=middle;whiteSpace=wrap;rounded=0;" parent="1" vertex="1">
          <mxGeometry x="105" y="93" width="60" height="30" as="geometry" />
        </mxCell>
        <mxCell id="_bRizXqgxDTDamUUWUk5-12" value="&lt;b&gt;&lt;font style=&quot;font-size: 14px;&quot;&gt;2-4&lt;/font&gt;&lt;/b&gt;" style="text;html=1;strokeColor=none;fillColor=none;align=center;verticalAlign=middle;whiteSpace=wrap;rounded=0;" parent="1" vertex="1">
          <mxGeometry x="105" y="134" width="60" height="30" as="geometry" />
        </mxCell>
        <mxCell id="_bRizXqgxDTDamUUWUk5-13" value="&lt;b&gt;&lt;font style=&quot;font-size: 14px;&quot;&gt;2-5&lt;/font&gt;&lt;/b&gt;" style="text;html=1;strokeColor=none;fillColor=none;align=center;verticalAlign=middle;whiteSpace=wrap;rounded=0;" parent="1" vertex="1">
          <mxGeometry x="105" y="175" width="60" height="30" as="geometry" />
        </mxCell>
        <mxCell id="_bRizXqgxDTDamUUWUk5-14" value="&lt;b&gt;&lt;font style=&quot;font-size: 14px;&quot;&gt;3-4&lt;/font&gt;&lt;/b&gt;" style="text;html=1;strokeColor=none;fillColor=none;align=center;verticalAlign=middle;whiteSpace=wrap;rounded=0;" parent="1" vertex="1">
          <mxGeometry x="105" y="216" width="60" height="30" as="geometry" />
        </mxCell>
        <mxCell id="_bRizXqgxDTDamUUWUk5-15" value="&lt;b&gt;&lt;font style=&quot;font-size: 14px;&quot;&gt;4-5&lt;/font&gt;&lt;/b&gt;" style="text;html=1;strokeColor=none;fillColor=none;align=center;verticalAlign=middle;whiteSpace=wrap;rounded=0;" parent="1" vertex="1">
          <mxGeometry x="105" y="257" width="60" height="30" as="geometry" />
        </mxCell>
        <mxCell id="_bRizXqgxDTDamUUWUk5-16" value="&lt;b&gt;&lt;font style=&quot;font-size: 14px;&quot;&gt;5-6&lt;/font&gt;&lt;/b&gt;" style="text;html=1;strokeColor=none;fillColor=none;align=center;verticalAlign=middle;whiteSpace=wrap;rounded=0;" parent="1" vertex="1">
          <mxGeometry x="105" y="298" width="60" height="30" as="geometry" />
        </mxCell>
        <mxCell id="_bRizXqgxDTDamUUWUk5-17" value="" style="endArrow=none;dashed=1;html=1;rounded=0;" parent="1" edge="1">
          <mxGeometry width="50" height="50" relative="1" as="geometry">
            <mxPoint x="249" y="483" as="sourcePoint" />
            <mxPoint x="249" y="24" as="targetPoint" />
          </mxGeometry>
        </mxCell>
        <mxCell id="_bRizXqgxDTDamUUWUk5-18" value="" style="endArrow=none;html=1;rounded=0;" parent="1" edge="1">
          <mxGeometry width="50" height="50" relative="1" as="geometry">
            <mxPoint x="170" y="30" as="sourcePoint" />
            <mxPoint x="250" y="30" as="targetPoint" />
          </mxGeometry>
        </mxCell>
        <mxCell id="_bRizXqgxDTDamUUWUk5-20" value="" style="endArrow=none;dashed=1;html=1;rounded=0;" parent="1" edge="1">
          <mxGeometry width="50" height="50" relative="1" as="geometry">
            <mxPoint x="300" y="489" as="sourcePoint" />
            <mxPoint x="300" y="60" as="targetPoint" />
          </mxGeometry>
        </mxCell>
        <mxCell id="_bRizXqgxDTDamUUWUk5-21" value="" style="endArrow=none;html=1;rounded=0;" parent="1" edge="1">
          <mxGeometry width="50" height="50" relative="1" as="geometry">
            <mxPoint x="250" y="70" as="sourcePoint" />
            <mxPoint x="300" y="70" as="targetPoint" />
          </mxGeometry>
        </mxCell>
        <mxCell id="_bRizXqgxDTDamUUWUk5-22" value="" style="endArrow=none;dashed=1;html=1;rounded=0;" parent="1" edge="1">
          <mxGeometry width="50" height="50" relative="1" as="geometry">
            <mxPoint x="330" y="486.5" as="sourcePoint" />
            <mxPoint x="330" y="180" as="targetPoint" />
          </mxGeometry>
        </mxCell>
        <mxCell id="_bRizXqgxDTDamUUWUk5-23" value="" style="endArrow=none;html=1;rounded=0;" parent="1" edge="1">
          <mxGeometry width="50" height="50" relative="1" as="geometry">
            <mxPoint x="300" y="190" as="sourcePoint" />
            <mxPoint x="330" y="190" as="targetPoint" />
          </mxGeometry>
        </mxCell>
        <mxCell id="_bRizXqgxDTDamUUWUk5-24" value="" style="endArrow=none;dashed=1;html=1;rounded=0;" parent="1" edge="1">
          <mxGeometry width="50" height="50" relative="1" as="geometry">
            <mxPoint x="400" y="486.5" as="sourcePoint" />
            <mxPoint x="400" y="137" as="targetPoint" />
          </mxGeometry>
        </mxCell>
        <mxCell id="_bRizXqgxDTDamUUWUk5-25" value="" style="endArrow=none;html=1;rounded=0;" parent="1" edge="1">
          <mxGeometry width="50" height="50" relative="1" as="geometry">
            <mxPoint x="300" y="150" as="sourcePoint" />
            <mxPoint x="400" y="150" as="targetPoint" />
          </mxGeometry>
        </mxCell>
        <mxCell id="_bRizXqgxDTDamUUWUk5-26" value="" style="endArrow=none;dashed=1;html=1;rounded=0;" parent="1" edge="1">
          <mxGeometry width="50" height="50" relative="1" as="geometry">
            <mxPoint x="420" y="486.5" as="sourcePoint" />
            <mxPoint x="420" y="100" as="targetPoint" />
          </mxGeometry>
        </mxCell>
        <mxCell id="_bRizXqgxDTDamUUWUk5-27" value="" style="endArrow=none;html=1;rounded=0;" parent="1" edge="1">
          <mxGeometry width="50" height="50" relative="1" as="geometry">
            <mxPoint x="250" y="110" as="sourcePoint" />
            <mxPoint x="420" y="110" as="targetPoint" />
          </mxGeometry>
        </mxCell>
        <mxCell id="_bRizXqgxDTDamUUWUk5-28" value="5" style="text;html=1;strokeColor=none;fillColor=none;align=center;verticalAlign=middle;whiteSpace=wrap;rounded=0;fontStyle=0" parent="1" vertex="1">
          <mxGeometry x="170" width="20" height="30" as="geometry" />
        </mxCell>
        <mxCell id="_bRizXqgxDTDamUUWUk5-29" value="5" style="text;html=1;strokeColor=none;fillColor=none;align=center;verticalAlign=middle;whiteSpace=wrap;rounded=0;fontStyle=0" parent="1" vertex="1">
          <mxGeometry x="250" y="82" width="20" height="30" as="geometry" />
        </mxCell>
        <mxCell id="_bRizXqgxDTDamUUWUk5-30" value="4" style="text;html=1;strokeColor=none;fillColor=none;align=center;verticalAlign=middle;whiteSpace=wrap;rounded=0;fontStyle=0" parent="1" vertex="1">
          <mxGeometry x="250" y="41" width="20" height="30" as="geometry" />
        </mxCell>
        <mxCell id="_bRizXqgxDTDamUUWUk5-31" value="3" style="text;html=1;strokeColor=none;fillColor=none;align=center;verticalAlign=middle;whiteSpace=wrap;rounded=0;fontStyle=0" parent="1" vertex="1">
          <mxGeometry x="300" y="123" width="20" height="30" as="geometry" />
        </mxCell>
        <mxCell id="_bRizXqgxDTDamUUWUk5-32" value="2" style="text;html=1;strokeColor=none;fillColor=none;align=center;verticalAlign=middle;whiteSpace=wrap;rounded=0;fontStyle=0" parent="1" vertex="1">
          <mxGeometry x="300" y="164" width="20" height="30" as="geometry" />
        </mxCell>
        <mxCell id="_bRizXqgxDTDamUUWUk5-33" value="" style="endArrow=none;dashed=1;html=1;rounded=0;" parent="1" edge="1">
          <mxGeometry width="50" height="50" relative="1" as="geometry">
            <mxPoint x="600" y="486.5" as="sourcePoint" />
            <mxPoint x="600" y="140" as="targetPoint" />
          </mxGeometry>
        </mxCell>
        <mxCell id="_bRizXqgxDTDamUUWUk5-34" value="" style="endArrow=none;html=1;rounded=0;" parent="1" edge="1">
          <mxGeometry width="50" height="50" relative="1" as="geometry">
            <mxPoint x="420" y="230" as="sourcePoint" />
            <mxPoint x="600" y="230" as="targetPoint" />
          </mxGeometry>
        </mxCell>
        <mxCell id="_bRizXqgxDTDamUUWUk5-35" value="3" style="text;html=1;strokeColor=none;fillColor=none;align=center;verticalAlign=middle;whiteSpace=wrap;rounded=0;fontStyle=0" parent="1" vertex="1">
          <mxGeometry x="420" y="205" width="20" height="30" as="geometry" />
        </mxCell>
        <mxCell id="_bRizXqgxDTDamUUWUk5-36" value="" style="endArrow=none;dashed=1;html=1;rounded=0;" parent="1" edge="1">
          <mxGeometry width="50" height="50" relative="1" as="geometry">
            <mxPoint x="1030" y="482.5" as="sourcePoint" />
            <mxPoint x="1030" y="170" as="targetPoint" />
          </mxGeometry>
        </mxCell>
        <mxCell id="_bRizXqgxDTDamUUWUk5-37" value="" style="endArrow=none;html=1;rounded=0;" parent="1" edge="1">
          <mxGeometry width="50" height="50" relative="1" as="geometry">
            <mxPoint x="600" y="270" as="sourcePoint" />
            <mxPoint x="1030" y="270" as="targetPoint" />
          </mxGeometry>
        </mxCell>
        <mxCell id="_bRizXqgxDTDamUUWUk5-38" value="8" style="text;html=1;strokeColor=none;fillColor=none;align=center;verticalAlign=middle;whiteSpace=wrap;rounded=0;fontStyle=0" parent="1" vertex="1">
          <mxGeometry x="600" y="240" width="20" height="30" as="geometry" />
        </mxCell>
        <mxCell id="_bRizXqgxDTDamUUWUk5-39" value="" style="endArrow=none;dashed=1;html=1;rounded=0;" parent="1" edge="1">
          <mxGeometry width="50" height="50" relative="1" as="geometry">
            <mxPoint x="1110" y="490" as="sourcePoint" />
            <mxPoint x="1110" y="300" as="targetPoint" />
          </mxGeometry>
        </mxCell>
        <mxCell id="_bRizXqgxDTDamUUWUk5-40" value="" style="endArrow=none;html=1;rounded=0;" parent="1" edge="1">
          <mxGeometry width="50" height="50" relative="1" as="geometry">
            <mxPoint x="1030" y="310" as="sourcePoint" />
            <mxPoint x="1110" y="310" as="targetPoint" />
          </mxGeometry>
        </mxCell>
        <mxCell id="_bRizXqgxDTDamUUWUk5-41" value="4" style="text;html=1;strokeColor=none;fillColor=none;align=center;verticalAlign=middle;whiteSpace=wrap;rounded=0;fontStyle=0" parent="1" vertex="1">
          <mxGeometry x="1030" y="280" width="20" height="30" as="geometry" />
        </mxCell>
        <mxCell id="_bRizXqgxDTDamUUWUk5-42" value="5" style="text;html=1;strokeColor=none;fillColor=none;align=center;verticalAlign=middle;whiteSpace=wrap;rounded=0;fontStyle=0" parent="1" vertex="1">
          <mxGeometry x="170" y="370" width="20" height="30" as="geometry" />
        </mxCell>
        <mxCell id="_bRizXqgxDTDamUUWUk5-43" value="9" style="text;html=1;strokeColor=none;fillColor=none;align=center;verticalAlign=middle;whiteSpace=wrap;rounded=0;fontStyle=0" parent="1" vertex="1">
          <mxGeometry x="250" y="370" width="20" height="30" as="geometry" />
        </mxCell>
        <mxCell id="_bRizXqgxDTDamUUWUk5-44" value="10" style="text;html=1;strokeColor=none;fillColor=none;align=center;verticalAlign=middle;whiteSpace=wrap;rounded=0;fontStyle=0" parent="1" vertex="1">
          <mxGeometry x="300" y="370" width="20" height="30" as="geometry" />
        </mxCell>
        <mxCell id="_bRizXqgxDTDamUUWUk5-45" value="8" style="text;html=1;strokeColor=none;fillColor=none;align=center;verticalAlign=middle;whiteSpace=wrap;rounded=0;fontStyle=0" parent="1" vertex="1">
          <mxGeometry x="350" y="370" width="20" height="30" as="geometry" />
        </mxCell>
        <mxCell id="_bRizXqgxDTDamUUWUk5-46" value="5" style="text;html=1;strokeColor=none;fillColor=none;align=center;verticalAlign=middle;whiteSpace=wrap;rounded=0;fontStyle=0" parent="1" vertex="1">
          <mxGeometry x="400" y="370" width="20" height="30" as="geometry" />
        </mxCell>
        <mxCell id="_bRizXqgxDTDamUUWUk5-47" value="3" style="text;html=1;strokeColor=none;fillColor=none;align=center;verticalAlign=middle;whiteSpace=wrap;rounded=0;fontStyle=0" parent="1" vertex="1">
          <mxGeometry x="430" y="370" width="20" height="30" as="geometry" />
        </mxCell>
        <mxCell id="_bRizXqgxDTDamUUWUk5-48" value="8" style="text;html=1;strokeColor=none;fillColor=none;align=center;verticalAlign=middle;whiteSpace=wrap;rounded=0;fontStyle=0" parent="1" vertex="1">
          <mxGeometry x="610" y="370" width="20" height="30" as="geometry" />
        </mxCell>
        <mxCell id="_bRizXqgxDTDamUUWUk5-49" value="4" style="text;html=1;strokeColor=none;fillColor=none;align=center;verticalAlign=middle;whiteSpace=wrap;rounded=0;fontStyle=0" parent="1" vertex="1">
          <mxGeometry x="1030" y="370" width="20" height="30" as="geometry" />
        </mxCell>
        <mxCell id="_bRizXqgxDTDamUUWUk5-52" value="10" style="text;html=1;strokeColor=none;fillColor=none;align=center;verticalAlign=middle;whiteSpace=wrap;rounded=0;fontStyle=1;fontSize=13;" parent="1" vertex="1">
          <mxGeometry x="190" width="60" height="30" as="geometry" />
        </mxCell>
        <mxCell id="_bRizXqgxDTDamUUWUk5-53" value="8" style="text;html=1;strokeColor=none;fillColor=none;align=center;verticalAlign=middle;whiteSpace=wrap;rounded=0;fontStyle=1;fontSize=13;" parent="1" vertex="1">
          <mxGeometry x="270" y="41" width="40" height="30" as="geometry" />
        </mxCell>
        <mxCell id="_bRizXqgxDTDamUUWUk5-54" value="20" style="text;html=1;strokeColor=none;fillColor=none;align=center;verticalAlign=middle;whiteSpace=wrap;rounded=0;fontStyle=1;fontSize=13;" parent="1" vertex="1">
          <mxGeometry x="350" y="80" width="40" height="30" as="geometry" />
        </mxCell>
        <mxCell id="_bRizXqgxDTDamUUWUk5-55" value="10" style="text;html=1;strokeColor=none;fillColor=none;align=center;verticalAlign=middle;whiteSpace=wrap;rounded=0;fontStyle=1;fontSize=13;" parent="1" vertex="1">
          <mxGeometry x="330" y="123" width="40" height="30" as="geometry" />
        </mxCell>
        <mxCell id="_bRizXqgxDTDamUUWUk5-56" value="4" style="text;html=1;strokeColor=none;fillColor=none;align=center;verticalAlign=middle;whiteSpace=wrap;rounded=0;fontStyle=1;fontSize=13;" parent="1" vertex="1">
          <mxGeometry x="310" y="164" width="40" height="30" as="geometry" />
        </mxCell>
        <mxCell id="_bRizXqgxDTDamUUWUk5-57" value="24" style="text;html=1;strokeColor=none;fillColor=none;align=center;verticalAlign=middle;whiteSpace=wrap;rounded=0;fontStyle=1;fontSize=13;" parent="1" vertex="1">
          <mxGeometry x="470" y="200" width="40" height="30" as="geometry" />
        </mxCell>
        <mxCell id="_bRizXqgxDTDamUUWUk5-58" value="110" style="text;html=1;strokeColor=none;fillColor=none;align=center;verticalAlign=middle;whiteSpace=wrap;rounded=0;fontStyle=1;fontSize=13;" parent="1" vertex="1">
          <mxGeometry x="640" y="240" width="40" height="30" as="geometry" />
        </mxCell>
        <mxCell id="_bRizXqgxDTDamUUWUk5-59" value="12" style="text;html=1;strokeColor=none;fillColor=none;align=center;verticalAlign=middle;whiteSpace=wrap;rounded=0;fontStyle=1;fontSize=13;" parent="1" vertex="1">
          <mxGeometry x="1060" y="280" width="40" height="30" as="geometry" />
        </mxCell>
        <mxCell id="_bRizXqgxDTDamUUWUk5-60" value="Ч(ум) = 10" style="text;html=1;strokeColor=none;fillColor=none;align=center;verticalAlign=middle;whiteSpace=wrap;rounded=0;fontStyle=1" parent="1" vertex="1">
          <mxGeometry x="1110" y="450" width="80" height="30" as="geometry" />
        </mxCell>
        <mxCell id="_bRizXqgxDTDamUUWUk5-61" value="Ч(опт) = 7" style="text;html=1;strokeColor=none;fillColor=none;align=center;verticalAlign=middle;whiteSpace=wrap;rounded=0;fontStyle=1" parent="1" vertex="1">
          <mxGeometry x="1110" y="410" width="80" height="30" as="geometry" />
        </mxCell>
        <mxCell id="_bRizXqgxDTDamUUWUk5-62" value="" style="endArrow=none;html=1;rounded=0;strokeWidth=3;fillColor=#dae8fc;strokeColor=#6c8ebf;" parent="1" edge="1">
          <mxGeometry width="50" height="50" relative="1" as="geometry">
            <mxPoint x="400" y="150" as="sourcePoint" />
            <mxPoint x="600" y="150" as="targetPoint" />
          </mxGeometry>
        </mxCell>
        <mxCell id="_bRizXqgxDTDamUUWUk5-63" value="26" style="text;html=1;strokeColor=none;fillColor=none;align=center;verticalAlign=middle;whiteSpace=wrap;rounded=0;fontStyle=1;fontSize=13;" parent="1" vertex="1">
          <mxGeometry x="460" y="120" width="40" height="30" as="geometry" />
        </mxCell>
        <mxCell id="_bRizXqgxDTDamUUWUk5-64" value="" style="endArrow=none;html=1;rounded=0;strokeWidth=3;fillColor=#dae8fc;strokeColor=#6c8ebf;" parent="1" edge="1">
          <mxGeometry width="50" height="50" relative="1" as="geometry">
            <mxPoint x="330" y="189.5" as="sourcePoint" />
            <mxPoint x="1030" y="190" as="targetPoint" />
          </mxGeometry>
        </mxCell>
        <mxCell id="_bRizXqgxDTDamUUWUk5-66" value="142" style="text;html=1;strokeColor=none;fillColor=none;align=center;verticalAlign=middle;whiteSpace=wrap;rounded=0;fontStyle=1;fontSize=13;" parent="1" vertex="1">
          <mxGeometry x="640" y="160" width="40" height="30" as="geometry" />
        </mxCell>
        <mxCell id="E0ZYAsSz4pejprgF22HR-1" value="" style="endArrow=none;html=1;rounded=0;strokeWidth=3;fillColor=#dae8fc;strokeColor=#6c8ebf;" edge="1" parent="1">
          <mxGeometry width="50" height="50" relative="1" as="geometry">
            <mxPoint x="300" y="70" as="sourcePoint" />
            <mxPoint x="502" y="70" as="targetPoint" />
          </mxGeometry>
        </mxCell>
        <mxCell id="E0ZYAsSz4pejprgF22HR-2" value="26" style="text;html=1;strokeColor=none;fillColor=none;align=center;verticalAlign=middle;whiteSpace=wrap;rounded=0;fontStyle=1;fontSize=13;" vertex="1" parent="1">
          <mxGeometry x="380" y="41" width="40" height="30" as="geometry" />
        </mxCell>
      </root>
    </mxGraphModel>
  </diagram>
</mxfile>
